<mxfile host="app.diagrams.net" agent="Mozilla/5.0 (Macintosh; Intel Mac OS X 10_15_7) AppleWebKit/537.36 (KHTML, like Gecko) Chrome/136.0.0.0 Safari/537.36" version="27.0.4">
  <diagram name="第 1 页" id="X953SDvG-uvm2T8iUO7L">
    <mxGraphModel dx="1216" dy="780" grid="0" gridSize="10" guides="1" tooltips="1" connect="1" arrows="1" fold="1" page="1" pageScale="1" pageWidth="2339" pageHeight="3300" math="0" shadow="0">
      <root>
        <mxCell id="0" />
        <mxCell id="1" parent="0" />
        <mxCell id="HxwUGHrHZ89-YTZq8f_4-15" style="edgeStyle=orthogonalEdgeStyle;rounded=0;orthogonalLoop=1;jettySize=auto;html=1;" edge="1" parent="1" source="HxwUGHrHZ89-YTZq8f_4-1" target="HxwUGHrHZ89-YTZq8f_4-3">
          <mxGeometry relative="1" as="geometry" />
        </mxCell>
        <mxCell id="HxwUGHrHZ89-YTZq8f_4-31" style="edgeStyle=orthogonalEdgeStyle;rounded=0;orthogonalLoop=1;jettySize=auto;html=1;" edge="1" parent="1" source="HxwUGHrHZ89-YTZq8f_4-1" target="HxwUGHrHZ89-YTZq8f_4-18">
          <mxGeometry relative="1" as="geometry" />
        </mxCell>
        <mxCell id="HxwUGHrHZ89-YTZq8f_4-1" value="发布含税货源" style="rounded=1;whiteSpace=wrap;html=1;" vertex="1" parent="1">
          <mxGeometry x="850" y="207" width="120" height="60" as="geometry" />
        </mxCell>
        <mxCell id="HxwUGHrHZ89-YTZq8f_4-23" style="edgeStyle=orthogonalEdgeStyle;rounded=0;orthogonalLoop=1;jettySize=auto;html=1;" edge="1" parent="1" source="HxwUGHrHZ89-YTZq8f_4-3" target="HxwUGHrHZ89-YTZq8f_4-21">
          <mxGeometry relative="1" as="geometry" />
        </mxCell>
        <mxCell id="HxwUGHrHZ89-YTZq8f_4-30" style="edgeStyle=orthogonalEdgeStyle;rounded=0;orthogonalLoop=1;jettySize=auto;html=1;" edge="1" parent="1" source="HxwUGHrHZ89-YTZq8f_4-3">
          <mxGeometry relative="1" as="geometry">
            <mxPoint x="1510" y="415" as="targetPoint" />
          </mxGeometry>
        </mxCell>
        <mxCell id="HxwUGHrHZ89-YTZq8f_4-3" value="货源审核" style="rounded=1;whiteSpace=wrap;html=1;" vertex="1" parent="1">
          <mxGeometry x="850" y="470" width="120" height="60" as="geometry" />
        </mxCell>
        <mxCell id="HxwUGHrHZ89-YTZq8f_4-27" style="edgeStyle=orthogonalEdgeStyle;rounded=0;orthogonalLoop=1;jettySize=auto;html=1;" edge="1" parent="1" source="HxwUGHrHZ89-YTZq8f_4-6">
          <mxGeometry relative="1" as="geometry">
            <mxPoint x="912" y="380.5" as="targetPoint" />
          </mxGeometry>
        </mxCell>
        <mxCell id="HxwUGHrHZ89-YTZq8f_4-6" value="计算单位差价/修改审核状态" style="rounded=1;whiteSpace=wrap;html=1;" vertex="1" parent="1">
          <mxGeometry x="1038" y="350" width="161" height="61" as="geometry" />
        </mxCell>
        <mxCell id="HxwUGHrHZ89-YTZq8f_4-7" value="&lt;div data-docx-has-block-data=&quot;false&quot; data-lark-html-role=&quot;root&quot; data-page-id=&quot;PmPzdInQhoWsLtxFXCoc3s2pnDf&quot;&gt;&lt;div style=&quot;text-align: left;&quot; class=&quot;ace-line ace-line old-record-id-NmQLd3BFJoofC6xrh7jcFsMHnQh&quot;&gt;单位差价=货主运价*子账号配置个人税率&lt;/div&gt;&lt;div style=&quot;text-align: left;&quot; class=&quot;ace-line ace-line old-record-id-NvOwdJEEnoes11xt6zHcCwHLnfe&quot;&gt;      司机运价=货主运价-单位差价&lt;/div&gt;&lt;/div&gt;&lt;span class=&quot;lark-record-clipboard&quot; data-lark-record-format=&quot;docx/record&quot; data-lark-record-data=&quot;{&amp;quot;isCut&amp;quot;:false,&amp;quot;rootId&amp;quot;:&amp;quot;PmPzdInQhoWsLtxFXCoc3s2pnDf&amp;quot;,&amp;quot;parentId&amp;quot;:&amp;quot;PmPzdInQhoWsLtxFXCoc3s2pnDf&amp;quot;,&amp;quot;blockIds&amp;quot;:[40,41],&amp;quot;recordIds&amp;quot;:[&amp;quot;NmQLd3BFJoofC6xrh7jcFsMHnQh&amp;quot;,&amp;quot;NvOwdJEEnoes11xt6zHcCwHLnfe&amp;quot;],&amp;quot;recordMap&amp;quot;:{&amp;quot;NmQLd3BFJoofC6xrh7jcFsMHnQh&amp;quot;:{&amp;quot;id&amp;quot;:&amp;quot;NmQLd3BFJoofC6xrh7jcFsMHnQh&amp;quot;,&amp;quot;snapshot&amp;quot;:{&amp;quot;type&amp;quot;:&amp;quot;text&amp;quot;,&amp;quot;parent_id&amp;quot;:&amp;quot;PmPzdInQhoWsLtxFXCoc3s2pnDf&amp;quot;,&amp;quot;comments&amp;quot;:[],&amp;quot;revisions&amp;quot;:[],&amp;quot;locked&amp;quot;:false,&amp;quot;hidden&amp;quot;:false,&amp;quot;author&amp;quot;:&amp;quot;7458225783314038803&amp;quot;,&amp;quot;children&amp;quot;:[],&amp;quot;text&amp;quot;:{&amp;quot;initialAttributedTexts&amp;quot;:{&amp;quot;text&amp;quot;:{&amp;quot;0&amp;quot;:&amp;quot;单位差价=货主运价*子账号配置个人税率&amp;quot;},&amp;quot;attribs&amp;quot;:{&amp;quot;0&amp;quot;:&amp;quot;*0+j&amp;quot;}},&amp;quot;apool&amp;quot;:{&amp;quot;numToAttrib&amp;quot;:{&amp;quot;0&amp;quot;:[&amp;quot;author&amp;quot;,&amp;quot;7458225783314038803&amp;quot;]},&amp;quot;nextNum&amp;quot;:1}},&amp;quot;align&amp;quot;:&amp;quot;&amp;quot;,&amp;quot;folded&amp;quot;:false}},&amp;quot;NvOwdJEEnoes11xt6zHcCwHLnfe&amp;quot;:{&amp;quot;id&amp;quot;:&amp;quot;NvOwdJEEnoes11xt6zHcCwHLnfe&amp;quot;,&amp;quot;snapshot&amp;quot;:{&amp;quot;type&amp;quot;:&amp;quot;text&amp;quot;,&amp;quot;parent_id&amp;quot;:&amp;quot;PmPzdInQhoWsLtxFXCoc3s2pnDf&amp;quot;,&amp;quot;comments&amp;quot;:[],&amp;quot;revisions&amp;quot;:[],&amp;quot;locked&amp;quot;:false,&amp;quot;hidden&amp;quot;:false,&amp;quot;author&amp;quot;:&amp;quot;7458225783314038803&amp;quot;,&amp;quot;children&amp;quot;:[],&amp;quot;text&amp;quot;:{&amp;quot;initialAttributedTexts&amp;quot;:{&amp;quot;text&amp;quot;:{&amp;quot;0&amp;quot;:&amp;quot;      司机运价=货主运价-单位差价&amp;quot;},&amp;quot;attribs&amp;quot;:{&amp;quot;0&amp;quot;:&amp;quot;*0+k&amp;quot;}},&amp;quot;apool&amp;quot;:{&amp;quot;numToAttrib&amp;quot;:{&amp;quot;0&amp;quot;:[&amp;quot;author&amp;quot;,&amp;quot;7458225783314038803&amp;quot;]},&amp;quot;nextNum&amp;quot;:1}},&amp;quot;align&amp;quot;:&amp;quot;&amp;quot;,&amp;quot;folded&amp;quot;:false}},&amp;quot;PmPzdInQhoWsLtxFXCoc3s2pnDf&amp;quot;:{&amp;quot;id&amp;quot;:&amp;quot;PmPzdInQhoWsLtxFXCoc3s2pnDf&amp;quot;,&amp;quot;snapshot&amp;quot;:{&amp;quot;type&amp;quot;:&amp;quot;page&amp;quot;,&amp;quot;parent_id&amp;quot;:&amp;quot;&amp;quot;,&amp;quot;comments&amp;quot;:[],&amp;quot;revisions&amp;quot;:[],&amp;quot;locked&amp;quot;:false,&amp;quot;hidden&amp;quot;:false,&amp;quot;author&amp;quot;:&amp;quot;7458225783314038803&amp;quot;,&amp;quot;children&amp;quot;:[&amp;quot;doxcnSsRzmK9UY6GLMcSYavZb5g&amp;quot;,&amp;quot;doxcnnTq2jZX8zF5uBvYDxKSMM0&amp;quot;,&amp;quot;doxcn73OgdYrPLWlbyHnjd4dCaf&amp;quot;,&amp;quot;doxcn63eAXSfTvNmnqLqj1bcUTg&amp;quot;,&amp;quot;doxcnSirAcn5ZzLQK9ATJMONScc&amp;quot;,&amp;quot;doxcnaucXII4i4NTGBqqvQlXUpc&amp;quot;,&amp;quot;doxcnezhqamkZcwwLYlXd1k73Df&amp;quot;,&amp;quot;RUK6du1UAoI59gxnKC7cXmRunxf&amp;quot;,&amp;quot;doxcndBeBZvMhESlmYhNoraz8Pc&amp;quot;,&amp;quot;LotQdCCTAoonvWxRpNWcTN4vnXc&amp;quot;,&amp;quot;NiP8de5froLFGixGUZZciWxln7e&amp;quot;,&amp;quot;S7ubdwaKRoMomzxIEOvcvkF4nJf&amp;quot;,&amp;quot;Dm8IdY59uoGmJAxqeodcVRJSnIC&amp;quot;,&amp;quot;CuNTd9FRso1d3QxBpxwcE5JsnvL&amp;quot;,&amp;quot;Dnd2dcRqBoCW2kxqE0kcW2rYnNe&amp;quot;,&amp;quot;CE2CdlHt8orWM9xDPupczDMnnvc&amp;quot;,&amp;quot;A9HfdgttWolH1cxuY1RcWkdgnsD&amp;quot;,&amp;quot;ET1DdXk3EoBRz0xeUMYcNoZmnBb&amp;quot;,&amp;quot;Cpfhdy9ppoQDMix1Jr1c3mPKntd&amp;quot;,&amp;quot;BaSPdL87PomiHaxIGh4cdbg2ndF&amp;quot;,&amp;quot;PspLd9SWZojVlYx9l9hc7vx3njf&amp;quot;,&amp;quot;QK0KdJlY5oTKy4xioQzcTmaCnCg&amp;quot;,&amp;quot;G8zwdILu0oyZFyxRLBXcs2aSnlb&amp;quot;,&amp;quot;SGsXdrogVoe90CxuqGNcZSEpnkg&amp;quot;,&amp;quot;Z6Rzdg7iioi1QcxC79Vcw3Pwnt1&amp;quot;,&amp;quot;QpZFd04gMoazcbxpnQecz8xNn0b&amp;quot;,&amp;quot;BLN8dz5zgo1DnXx1ugpcwpaTn8e&amp;quot;,&amp;quot;YJw1dj16poAyETxmY6Xc6ZMkn7S&amp;quot;,&amp;quot;OuGhdA6E3oggCfxp72WcNjA2nNg&amp;quot;,&amp;quot;FISfdRmcIofh3UxEcIjch1ewn9e&amp;quot;,&amp;quot;EbhidXsUFoAhqix19BKcvdpXnOd&amp;quot;,&amp;quot;PZc2dtcJ7oxMSfxz6ZNcXA2Hnkf&amp;quot;,&amp;quot;MkVedFoMZoLnn1xv443ciyPtn0d&amp;quot;,&amp;quot;RtKqdQCn4oAQBfxaZe5cV3RhnOh&amp;quot;,&amp;quot;EHfidlIZIo7AewxMBJBc7K7CnQg&amp;quot;,&amp;quot;OELXd7sXuosqiOx3xpRcONlAnJc&amp;quot;,&amp;quot;AU6BdLSdqotGzzxffRdcTVesnoe&amp;quot;,&amp;quot;VaJQdDIbBoikS1xvuXCcqcDMnJc&amp;quot;,&amp;quot;NmQLd3BFJoofC6xrh7jcFsMHnQh&amp;quot;,&amp;quot;NvOwdJEEnoes11xt6zHcCwHLnfe&amp;quot;,&amp;quot;ZM2odY1GPodB09xtyETcVpR6nId&amp;quot;,&amp;quot;W6Uwd8OgnosMTCxuil1c1yxin8c&amp;quot;,&amp;quot;YXwkdFtBuoBtl8x7tNTciG7tnje&amp;quot;,&amp;quot;FBWHderRHo71fjxR4eeczBh4nFe&amp;quot;,&amp;quot;W2gpdmr26o5GIBxXPJWcZVGrnAB&amp;quot;,&amp;quot;JFTGdOCwPoPTVKxRMdAcfCPSnBd&amp;quot;,&amp;quot;SnNGdQTt3oETkBxRsBCcPKzAnkh&amp;quot;,&amp;quot;TQnKdNuP7oDjplxAlcUciLxUn8b&amp;quot;,&amp;quot;UOB9dPcxXoRwizx5qovcyFzcnhh&amp;quot;,&amp;quot;WDYmdSWDTofSq7xf84scb9HBnUb&amp;quot;,&amp;quot;L9iadKczMowOvQxpHescn7KonQh&amp;quot;,&amp;quot;G3KHdRRF7oelCmxKqyncygutnF8&amp;quot;,&amp;quot;GscRd2UkIoHIepxCVGzc2scvnOd&amp;quot;,&amp;quot;LjvmdHLhLoIqWsx9Su4cIRm6nde&amp;quot;,&amp;quot;NxghdQSEUol12exHoESctJhAnxh&amp;quot;,&amp;quot;IPAAdlCJIoJiHyxV0D7cjIKRnfe&amp;quot;,&amp;quot;YtpYdFi2aozk4ox7gaMcntHvnCh&amp;quot;,&amp;quot;OvYhd2c5yoDKUzxSpJScIxvanrd&amp;quot;,&amp;quot;Z38HdWhEYoEKebx4TzJctTUqnCg&amp;quot;,&amp;quot;RcG3dWAQAoNUygxFTugcNFGXnDf&amp;quot;,&amp;quot;UyIzd073ToSGoVxe9LZc6HiPnse&amp;quot;,&amp;quot;MQFXdli78oJhTSxr9RVcbu7Nnzc&amp;quot;,&amp;quot;BOXFddeF7o53Z0xsFgVc53oGndf&amp;quot;,&amp;quot;HDdTd2TGpoMGh8xLGmjcK3kFnkf&amp;quot;,&amp;quot;EOECdmyftoPSuQxWYTAcQA9knyd&amp;quot;,&amp;quot;GUCndieFboNVdFxllhqcTDxpnWb&amp;quot;,&amp;quot;Ua7Xdectdovls0xF3p5cB1WWnPd&amp;quot;,&amp;quot;ONhudOffCordgGxyQKicXy7Dnve&amp;quot;,&amp;quot;Og11dpQBNoOsGzxWs7NcyKhbnnb&amp;quot;,&amp;quot;Prywd8IYeoaESNxcw6lccr88nff&amp;quot;,&amp;quot;FSI9dfe5XoIIWtxkdSZcMtLWnWf&amp;quot;,&amp;quot;Mm7hd0fL5oqmu2xkqVhcyIK1nkg&amp;quot;,&amp;quot;PTx6dsDj3o1S6CxYsq8cJ1I1nmg&amp;quot;,&amp;quot;TBKKdnPnyoxQTDxJVcVc5Uafnqh&amp;quot;,&amp;quot;Z7NrdOZmWohxSZxKkkmcA7Y5nSa&amp;quot;,&amp;quot;OcfZd8REMo6pgMxkkgXccLsnnoe&amp;quot;,&amp;quot;VbwZdLEjJokL0rxh691c8hnXnbf&amp;quot;,&amp;quot;EMxfdV3C7oi9fmxAnj0c8ih3nzf&amp;quot;,&amp;quot;I4yxdGRvYoOCWGxY0m3cX0ktnRw&amp;quot;,&amp;quot;Wl9GdDubPogxc1xv2TWctiRPnRb&amp;quot;,&amp;quot;EIr6dlqpaoqfuKx3knucfsx8nug&amp;quot;,&amp;quot;GQdJd1EB5ovBC2xR5wccOGa5n0b&amp;quot;,&amp;quot;RPrYdINY7okjmwxY5AwcqqTrnQK&amp;quot;,&amp;quot;IyEGdldwhojiJbxTbxrchHSOnxc&amp;quot;,&amp;quot;RL54dUizloL78axBcj2cZlrCngg&amp;quot;,&amp;quot;WOGPdCFwMoOzV3xUhzXcsKqtnsf&amp;quot;,&amp;quot;Yrdqdmb3sozckOxizhjckdn2nTe&amp;quot;,&amp;quot;J5h6dZYHDoaRhDxGHWQcVtkrnVh&amp;quot;,&amp;quot;WXu2dX8L8oZowHx9EMmcKHPynwh&amp;quot;,&amp;quot;H8KLdF6pRoAOeXxYW8XciMnvn0c&amp;quot;,&amp;quot;MvO7deKdvoYSiHxvn9DcASNEnqf&amp;quot;,&amp;quot;CkjRdxNudoTBKYxB5Z4ckzqTnGf&amp;quot;,&amp;quot;QFtqdoawwoj3xmxhTjOcM5qgn4b&amp;quot;,&amp;quot;CQU9dFhMSonbPnxWjlbc0ypIn0b&amp;quot;,&amp;quot;Rilkd0xUwof0QBxe7dBcFeBKnzb&amp;quot;,&amp;quot;TyQfdnoqNoETeKxEWRMcWQH9nSc&amp;quot;,&amp;quot;NvqIdJoI5o8bx6xOO64cylY2nDb&amp;quot;,&amp;quot;ApKYd7sBVoz2B2xtVyIcRwvfn7d&amp;quot;,&amp;quot;EhzqdYa3WoduYfxwhgHcTKvRnnf&amp;quot;,&amp;quot;ZUPqdjN8PoPcFDxhRitcx0tqnae&amp;quot;,&amp;quot;SI5xdZTZro0dBfxOYLTcKivKn9B&amp;quot;,&amp;quot;IFTtdmF0yollksxWlp9cFdWXnfg&amp;quot;,&amp;quot;WnfxdjTqxoIIOKx1rBycHsqfnGd&amp;quot;,&amp;quot;XiLOd7gJ1oUsjZxr66cc0pAYnwh&amp;quot;,&amp;quot;M6D4d7W6loMsM1xz7MXcSRaonTe&amp;quot;,&amp;quot;QrXLdO4eGoi8TyxsJW0ci5E0nBp&amp;quot;,&amp;quot;EFcndDWinoryBixoiQNcOzuPndh&amp;quot;,&amp;quot;W75bdiFEOoA2Lgxrf9Tc4pkunYg&amp;quot;,&amp;quot;O40hddfoVoN100xXydYcUArTn1G&amp;quot;,&amp;quot;YTcmdJbeMoZHR7xHQsYcfv2CnUf&amp;quot;,&amp;quot;RO8td6QHVopCo0x6Q7McqQGTnab&amp;quot;,&amp;quot;C4G4d8Z2yogOpaxFd17cwx6wnOf&amp;quot;,&amp;quot;AiEvdW6NXoaWR2xG4iqct97LnUe&amp;quot;,&amp;quot;DQWvdoOyGo3JTWxdWbocZN8tnvg&amp;quot;,&amp;quot;AUi1ddjfVofwJkx7PVocwqXhnkd&amp;quot;,&amp;quot;OeUmdUdUloJyX2xaQTIcb6OjnDd&amp;quot;,&amp;quot;F0pVd9tjJo9UuJxSYKqcNiPEn6g&amp;quot;,&amp;quot;KwOVd9heeoTLo1xKJoFcP1U1nsg&amp;quot;,&amp;quot;GUNjdMOImo1lEXx3gRucEBkKnbe&amp;quot;,&amp;quot;QGoWdtj1kojXkwxy1Prc5CWXnhh&amp;quot;,&amp;quot;Q7KwdkFqoo87GKxbRHkcbtaenZf&amp;quot;,&amp;quot;Sghrd2YanoKw8ixZIrccwfsAn7f&amp;quot;,&amp;quot;CURyd8MhUoryXKxl6HvcBulln0c&amp;quot;,&amp;quot;XVwyd2nyZophdIxdOi9c72GanKh&amp;quot;,&amp;quot;Lc61d2NJpoKQlxxkpuGco5AInpf&amp;quot;,&amp;quot;U7pDdVSJuohNGaxOjmucMRfnnte&amp;quot;,&amp;quot;Lp9gdkEYJo5Q4IxIGa5cARxNncc&amp;quot;,&amp;quot;AmtbdJyQlo6OO9xPR3mcCyeSnkq&amp;quot;,&amp;quot;YlxPdjulroMzb0xDKtZcK0WJnDo&amp;quot;,&amp;quot;BixAdH8cAobPFnxIuhdcooZ7nHh&amp;quot;,&amp;quot;T0qwdSW6Zo3nwgx2aXXcvrKcnde&amp;quot;,&amp;quot;UGfVd7CERoLeR4xjZDYcppy6nGb&amp;quot;,&amp;quot;Vh7vdx9q9oCED3xHbowc1I15nLd&amp;quot;,&amp;quot;OwRvdDkvYoLYruxwScmc1BHjnec&amp;quot;,&amp;quot;X5L0dO6L8oY6gFxPrLScbIV2nRe&amp;quot;,&amp;quot;BeCtdsLqzoTt1DxnYMgcwEQunkb&amp;quot;,&amp;quot;V93rdZgc2oQtmTxCajKcHHjFnXb&amp;quot;,&amp;quot;KYzbdxyAwoTO8exLtKbcIglcndh&amp;quot;,&amp;quot;NqzVdDlB0oM92qxhbvEcswOln8e&amp;quot;,&amp;quot;M5SSd94K2oS4IgxcldgczQOOnvg&amp;quot;,&amp;quot;EkBCdgZUxobtbnxHxasc4bGinCk&amp;quot;,&amp;quot;A8hZdF8mUo9Y36xmAo2c8Xp9nrg&amp;quot;,&amp;quot;KuPZdGJZ8oYJwdx1SeSccOkYnbb&amp;quot;,&amp;quot;K7z5dDKMjoeIFaxEaYmcVuYDnIf&amp;quot;,&amp;quot;SxP2dt82uogTXuxkI7Dcp9pmnmc&amp;quot;,&amp;quot;IqcndGn15oA8fhxFtikc6YS5nwf&amp;quot;,&amp;quot;Rlbbd8JbxoVVpqxGtUZcQLTpnbe&amp;quot;,&amp;quot;CdIqdk8JjobQDsx5ftvcklQdnVb&amp;quot;,&amp;quot;OgLMdB0K2oTgIVx5r4QcEXXKnxe&amp;quot;,&amp;quot;QqDhdErJkogHizxO3VKcZQsVnXf&amp;quot;,&amp;quot;Z2vedXcmmo9zH5x9ds6cBkKln2g&amp;quot;,&amp;quot;YpLZdxWMPos1rQxADW9cCI5Vn6g&amp;quot;,&amp;quot;UhpMdJYmhowNUoxnOwrcmie5n8b&amp;quot;,&amp;quot;Ly8mdAuuBofAIBxYjlscbpJNnPd&amp;quot;,&amp;quot;GhsVdBEsRo3RgRxufHncAfbNnOd&amp;quot;,&amp;quot;HeFbdDbwboWKp6xT7IwcluX6n4s&amp;quot;,&amp;quot;HRRjdK8rJo0R4ZxRpl9cUzAanKg&amp;quot;,&amp;quot;AjeMd2WIVoDUFBxtQpQcwkhanw5&amp;quot;,&amp;quot;doxcn8S5qbZZZqfs8cCnIrQBdbj&amp;quot;,&amp;quot;doxcnpL4VTpZfCaJuuB6nUa9KCf&amp;quot;],&amp;quot;text&amp;quot;:{&amp;quot;apool&amp;quot;:{&amp;quot;nextNum&amp;quot;:1,&amp;quot;numToAttrib&amp;quot;:{&amp;quot;0&amp;quot;:[&amp;quot;author&amp;quot;,&amp;quot;7458225783314038803&amp;quot;]}},&amp;quot;initialAttributedTexts&amp;quot;:{&amp;quot;attribs&amp;quot;:{&amp;quot;0&amp;quot;:&amp;quot;*0+b&amp;quot;},&amp;quot;text&amp;quot;:{&amp;quot;0&amp;quot;:&amp;quot;网货-5月功能迭代优化&amp;quot;}}},&amp;quot;align&amp;quot;:&amp;quot;&amp;quot;,&amp;quot;doc_info&amp;quot;:{&amp;quot;editors&amp;quot;:[&amp;quot;7458225783314038803&amp;quot;],&amp;quot;options&amp;quot;:[&amp;quot;editors&amp;quot;,&amp;quot;edit_time&amp;quot;],&amp;quot;deleted_editors&amp;quot;:[],&amp;quot;option_modified&amp;quot;:null}}}},&amp;quot;payloadMap&amp;quot;:{&amp;quot;NmQLd3BFJoofC6xrh7jcFsMHnQh&amp;quot;:{&amp;quot;level&amp;quot;:1},&amp;quot;NvOwdJEEnoes11xt6zHcCwHLnfe&amp;quot;:{&amp;quot;level&amp;quot;:1}},&amp;quot;extra&amp;quot;:{&amp;quot;channel&amp;quot;:&amp;quot;saas&amp;quot;,&amp;quot;pasteRandomId&amp;quot;:&amp;quot;5909c7fd-65ef-4b66-8e2d-287bd1afacf1&amp;quot;,&amp;quot;mention_page_title&amp;quot;:{},&amp;quot;external_mention_url&amp;quot;:{},&amp;quot;isEqualBlockSelection&amp;quot;:false},&amp;quot;isKeepQuoteContainer&amp;quot;:false,&amp;quot;selection&amp;quot;:[{&amp;quot;id&amp;quot;:40,&amp;quot;type&amp;quot;:&amp;quot;text&amp;quot;,&amp;quot;selection&amp;quot;:{&amp;quot;start&amp;quot;:6,&amp;quot;end&amp;quot;:25},&amp;quot;recordId&amp;quot;:&amp;quot;NmQLd3BFJoofC6xrh7jcFsMHnQh&amp;quot;},{&amp;quot;id&amp;quot;:41,&amp;quot;type&amp;quot;:&amp;quot;text&amp;quot;,&amp;quot;selection&amp;quot;:{&amp;quot;start&amp;quot;:0,&amp;quot;end&amp;quot;:20},&amp;quot;recordId&amp;quot;:&amp;quot;NvOwdJEEnoes11xt6zHcCwHLnfe&amp;quot;}],&amp;quot;pasteFlag&amp;quot;:&amp;quot;52001837-6608-476c-9622-511b4d9fbeda&amp;quot;}&quot;&gt;&lt;/span&gt;" style="shape=callout;whiteSpace=wrap;html=1;perimeter=calloutPerimeter;fillColor=#fff2cc;strokeColor=#d6b656;position2=0.51;" vertex="1" parent="1">
          <mxGeometry x="1041" y="250" width="300" height="90" as="geometry" />
        </mxCell>
        <mxCell id="HxwUGHrHZ89-YTZq8f_4-32" style="edgeStyle=orthogonalEdgeStyle;rounded=0;orthogonalLoop=1;jettySize=auto;html=1;entryX=1;entryY=0.5;entryDx=0;entryDy=0;" edge="1" parent="1" source="HxwUGHrHZ89-YTZq8f_4-18" target="HxwUGHrHZ89-YTZq8f_4-6">
          <mxGeometry relative="1" as="geometry" />
        </mxCell>
        <mxCell id="HxwUGHrHZ89-YTZq8f_4-78" style="edgeStyle=orthogonalEdgeStyle;rounded=0;orthogonalLoop=1;jettySize=auto;html=1;" edge="1" parent="1" source="HxwUGHrHZ89-YTZq8f_4-18">
          <mxGeometry relative="1" as="geometry">
            <mxPoint x="1716" y="380" as="targetPoint" />
          </mxGeometry>
        </mxCell>
        <mxCell id="HxwUGHrHZ89-YTZq8f_4-79" value="立即生效" style="edgeLabel;html=1;align=center;verticalAlign=middle;resizable=0;points=[];" vertex="1" connectable="0" parent="HxwUGHrHZ89-YTZq8f_4-78">
          <mxGeometry x="-0.0842" y="-2" relative="1" as="geometry">
            <mxPoint as="offset" />
          </mxGeometry>
        </mxCell>
        <mxCell id="HxwUGHrHZ89-YTZq8f_4-18" value="修改运费" style="rounded=1;whiteSpace=wrap;html=1;" vertex="1" parent="1">
          <mxGeometry x="1448" y="350" width="120" height="60" as="geometry" />
        </mxCell>
        <mxCell id="HxwUGHrHZ89-YTZq8f_4-21" value="货运流程" style="rounded=1;whiteSpace=wrap;html=1;" vertex="1" parent="1">
          <mxGeometry x="850" y="692" width="120" height="60" as="geometry" />
        </mxCell>
        <mxCell id="HxwUGHrHZ89-YTZq8f_4-33" value="添加服务费修改记录" style="shape=callout;whiteSpace=wrap;html=1;perimeter=calloutPerimeter;position2=0.45;fillColor=#fff2cc;strokeColor=#d6b656;" vertex="1" parent="1">
          <mxGeometry x="1401" y="273" width="301" height="70" as="geometry" />
        </mxCell>
        <mxCell id="HxwUGHrHZ89-YTZq8f_4-61" value="" style="rounded=0;whiteSpace=wrap;html=1;" vertex="1" parent="1">
          <mxGeometry x="985" y="521" width="120" height="60" as="geometry" />
        </mxCell>
        <mxCell id="HxwUGHrHZ89-YTZq8f_4-63" value="" style="rounded=0;whiteSpace=wrap;html=1;dashed=1;dashPattern=12 12;" vertex="1" parent="1">
          <mxGeometry x="1717" y="109" width="300" height="583" as="geometry" />
        </mxCell>
        <mxCell id="HxwUGHrHZ89-YTZq8f_4-64" value="" style="edgeStyle=orthogonalEdgeStyle;rounded=0;orthogonalLoop=1;jettySize=auto;html=1;" edge="1" parent="1" source="HxwUGHrHZ89-YTZq8f_4-65" target="HxwUGHrHZ89-YTZq8f_4-67">
          <mxGeometry relative="1" as="geometry" />
        </mxCell>
        <mxCell id="HxwUGHrHZ89-YTZq8f_4-65" value="开始" style="rounded=0;whiteSpace=wrap;html=1;" vertex="1" parent="1">
          <mxGeometry x="1804" y="113" width="120" height="46" as="geometry" />
        </mxCell>
        <mxCell id="HxwUGHrHZ89-YTZq8f_4-66" value="暂停" style="rounded=1;whiteSpace=wrap;html=1;" vertex="1" parent="1">
          <mxGeometry x="1734" y="555" width="120" height="60" as="geometry" />
        </mxCell>
        <mxCell id="HxwUGHrHZ89-YTZq8f_4-67" value="审核状态" style="rhombus;whiteSpace=wrap;html=1;rounded=0;" vertex="1" parent="1">
          <mxGeometry x="1824" y="222" width="80" height="80" as="geometry" />
        </mxCell>
        <mxCell id="HxwUGHrHZ89-YTZq8f_4-68" style="edgeStyle=orthogonalEdgeStyle;rounded=0;orthogonalLoop=1;jettySize=auto;html=1;" edge="1" parent="1" source="HxwUGHrHZ89-YTZq8f_4-70" target="HxwUGHrHZ89-YTZq8f_4-66">
          <mxGeometry relative="1" as="geometry" />
        </mxCell>
        <mxCell id="HxwUGHrHZ89-YTZq8f_4-69" style="edgeStyle=orthogonalEdgeStyle;rounded=0;orthogonalLoop=1;jettySize=auto;html=1;" edge="1" parent="1" source="HxwUGHrHZ89-YTZq8f_4-70" target="HxwUGHrHZ89-YTZq8f_4-73">
          <mxGeometry relative="1" as="geometry" />
        </mxCell>
        <mxCell id="HxwUGHrHZ89-YTZq8f_4-70" value="修改货源信息" style="rounded=1;whiteSpace=wrap;html=1;" vertex="1" parent="1">
          <mxGeometry x="1804" y="393" width="120" height="60" as="geometry" />
        </mxCell>
        <mxCell id="HxwUGHrHZ89-YTZq8f_4-71" style="edgeStyle=orthogonalEdgeStyle;rounded=0;orthogonalLoop=1;jettySize=auto;html=1;entryX=0.008;entryY=0.65;entryDx=0;entryDy=0;entryPerimeter=0;" edge="1" parent="1" source="HxwUGHrHZ89-YTZq8f_4-67" target="HxwUGHrHZ89-YTZq8f_4-70">
          <mxGeometry relative="1" as="geometry">
            <Array as="points">
              <mxPoint x="1784" y="262" />
              <mxPoint x="1784" y="432" />
            </Array>
          </mxGeometry>
        </mxCell>
        <mxCell id="HxwUGHrHZ89-YTZq8f_4-72" value="审核失败" style="edgeLabel;html=1;align=center;verticalAlign=middle;resizable=0;points=[];" vertex="1" connectable="0" parent="HxwUGHrHZ89-YTZq8f_4-71">
          <mxGeometry x="-0.0821" y="-2" relative="1" as="geometry">
            <mxPoint as="offset" />
          </mxGeometry>
        </mxCell>
        <mxCell id="HxwUGHrHZ89-YTZq8f_4-73" value="生效" style="rounded=1;whiteSpace=wrap;html=1;" vertex="1" parent="1">
          <mxGeometry x="1871" y="555" width="120" height="60" as="geometry" />
        </mxCell>
        <mxCell id="HxwUGHrHZ89-YTZq8f_4-74" style="edgeStyle=orthogonalEdgeStyle;rounded=0;orthogonalLoop=1;jettySize=auto;html=1;entryX=1;entryY=0.65;entryDx=0;entryDy=0;entryPerimeter=0;" edge="1" parent="1" source="HxwUGHrHZ89-YTZq8f_4-67" target="HxwUGHrHZ89-YTZq8f_4-70">
          <mxGeometry relative="1" as="geometry">
            <Array as="points">
              <mxPoint x="1944" y="262" />
              <mxPoint x="1944" y="432" />
            </Array>
          </mxGeometry>
        </mxCell>
        <mxCell id="HxwUGHrHZ89-YTZq8f_4-75" value="审核成功" style="edgeLabel;html=1;align=center;verticalAlign=middle;resizable=0;points=[];" vertex="1" connectable="0" parent="HxwUGHrHZ89-YTZq8f_4-74">
          <mxGeometry x="-0.0435" y="-3" relative="1" as="geometry">
            <mxPoint as="offset" />
          </mxGeometry>
        </mxCell>
        <mxCell id="HxwUGHrHZ89-YTZq8f_4-76" value="延迟生效任务" style="rounded=0;whiteSpace=wrap;html=1;strokeColor=none;" vertex="1" parent="1">
          <mxGeometry x="1801" y="43" width="120" height="60" as="geometry" />
        </mxCell>
      </root>
    </mxGraphModel>
  </diagram>
</mxfile>
